<?xml version="1.0" ?><!DOCTYPE svg  PUBLIC '-//W3C//DTD SVG 1.1//EN'  'http://www.w3.org/Graphics/SVG/1.1/DTD/svg11.dtd'><svg enable-background="new 0 0 50 50" id="Layer_1" version="1.1" viewBox="0 0 50 50" xml:space="preserve" xmlns="http://www.w3.org/2000/svg" xmlns:xlink="http://www.w3.org/1999/xlink"><path d="M45,1H5C2.8,1,1,2.8,1,5v40c0,2.2,1.8,4,4,4h40c2.2,0,4-1.8,4-4V5C49,2.8,47.2,1,45,1z" fill="#01AEF2"/><path d="M39.1,28.5C39,28.3,39,28.1,39,27.9c0.3-1.7,0.4-3.4,0.1-5c-1.2-7.4-8.2-12.7-15.7-11.6  c-0.4,0.1-0.8,0-1.2-0.2c-3.1-1.7-7-1.1-9.6,1.4c-2.5,2.5-3.2,6.3-1.5,9.5c0.2,0.3,0.2,0.6,0.1,1c-0.2,0.8-0.2,1.5-0.2,2.3  c0,0.4,0,0.9,0.1,1.4c0.8,8.1,8.2,13.7,16.3,12.5c0.2,0,0.5,0,0.7,0.1c1.5,0.8,3.2,1,4.8,0.7C38.2,39,41.2,33.5,39.1,28.5z   M32.1,32.3c-0.9,1-2,1.7-3.3,2.1c-2.4,0.7-4.9,0.7-7.3,0c-2.2-0.7-3.8-2-4.5-4.3c-0.5-1.6,0.6-2.8,2.2-2.6c0.7,0.1,1.2,0.5,1.5,1.1  c0.2,0.4,0.4,0.7,0.6,1.1c0.6,1.2,1.6,1.9,2.9,2.1c1.1,0.1,2.2,0,3.2-0.4c0.4-0.2,0.8-0.4,1-0.8c0.8-0.9,0.6-2.2-0.3-2.9  c-0.9-0.7-2-0.9-3.1-1.1c-1.5-0.3-3.1-0.7-4.5-1.3c-1.5-0.7-2.7-1.6-3.1-3.3c-0.5-2,0.1-3.6,1.7-4.9c1.4-1.1,3-1.5,4.8-1.6  c0.4,0,0.8,0,1.2,0c1.6,0,3.1,0.2,4.6,0.9c1.1,0.6,2,1.3,2.5,2.5c0.3,0.6,0.4,1.2,0.2,1.8c-0.2,0.7-0.7,1.2-1.4,1.4  c-0.8,0.2-1.5,0-2-0.7c-0.2-0.3-0.5-0.7-0.7-1.1c-0.7-1.1-1.6-1.8-3-1.8c-0.6,0-1.2,0-1.8,0.1c-0.5,0.1-1,0.4-1.5,0.7  c-0.7,0.7-0.7,1.6,0.1,2.3c0.5,0.4,1.1,0.6,1.8,0.8c1.5,0.4,3,0.7,4.5,1.1c0.8,0.2,1.6,0.5,2.3,0.9C34.1,26,33.9,30.2,32.1,32.3z" fill="#FFFFFF" id="S_2_"/></svg>